              <svg
                width="39"
                height="20"
                viewBox="0 0 39 20"
                fill="none"
                xmlns="http://www.w3.org/2000/svg"
              >
                <path
                  d="M13.2991 4.78973C8.22405 3.5705 4.67737 6.46782 2.49581 3.20998C2.48928 3.19686 2.48275 3.1903 2.47621 3.1772C2.41743 3.08543 2.49581 2.95433 2.60031 2.98054C7.09408 4.05558 7.82563 3.38696 9.71327 3.61638C11.4572 3.82614 13.2991 4.78973 13.2991 4.78973Z"
                  fill="#16191D"
                />
                <path
                  d="M14.1941 5.60904C9.7264 4.94699 6.55855 8.29659 4.16797 5.72048C4.16144 5.71393 4.15491 5.70082 4.14185 5.69427C4.07653 5.62216 4.12225 5.49106 4.22022 5.49762C8.30251 5.79914 9.26265 5.07809 10.9414 5.00599C12.5089 4.94044 14.1941 5.60904 14.1941 5.60904Z"
                  fill="#16191D"
                />
                <path
                  d="M15.0234 6.66446C11.124 6.13351 9.45197 9.64699 6.29066 7.49695C6.28413 7.4904 6.27759 7.48384 6.26453 7.47074C6.19922 7.41174 6.21881 7.24132 6.31025 7.24132C9.76549 7.24787 10.6668 6.44159 12.1235 6.26462C14.0961 6.02862 15.0234 6.66446 15.0234 6.66446Z"
                  fill="#16191D"
                />
                <path
                  d="M16.7806 7.82469C14.7427 8.041 15.0628 9.67975 12.829 9.31268C12.5351 9.26678 12.6004 9.05702 12.7311 9.0177C14.6057 8.48019 14.6057 8.11966 15.2784 7.8509C15.9185 7.60838 16.7806 7.82469 16.7806 7.82469Z"
                  fill="#16191D"
                />
                <path
                  d="M15.8595 7.32001C12.9203 7.379 12.1692 9.49627 9.69366 8.80799C9.31482 8.7031 9.44546 8.41468 9.64794 8.38847C12.4827 7.93618 12.6198 7.51666 13.6714 7.26756C14.6576 7.03159 15.8595 7.32001 15.8595 7.32001Z"
                  fill="#16191D"
                />
                <path
                  d="M14.1808 4.78323C14.1612 4.816 14.1155 4.82255 14.0829 4.80944C13.4754 4.46203 12.9073 4.05561 12.2541 3.60988C11.6401 3.19691 10.3207 2.63318 7.5774 2.76428C6.27107 2.82983 4.28546 3.09859 2.23452 1.68926C1.73811 1.35495 1.23517 0.784665 0.973906 0.253718C0.947781 0.207826 0.934719 0.148828 0.928187 0.08983C0.921656 0.0308319 0.986968 -0.0150415 1.04577 0.00461854C6.12085 2.04978 7.57087 1.25008 10.7648 1.99079C12.0776 2.29888 13.704 4.21295 14.1744 4.69145C14.2005 4.71113 14.2005 4.75045 14.1808 4.78323Z"
                  fill="#16191D"
                />
                <path
                  d="M18.5962 15.9923C18.5373 16.1757 18.5503 16.3921 18.4329 16.5494C18.2891 16.7592 17.9365 16.7789 17.7666 16.5887C17.6556 16.4905 17.6556 16.3332 17.6163 16.2085C17.3617 15.0877 17.1135 13.9666 16.8652 12.8392C16.8392 12.7606 16.8652 12.7081 16.9436 12.6754C17.0678 12.6426 17.0808 12.7802 17.1199 12.859C17.4008 13.6259 17.662 14.3993 17.9495 15.1662C18.0409 15.4285 18.348 15.3432 18.5503 15.4089C18.7659 15.5464 18.6353 15.8021 18.5962 15.9923Z"
                  fill="#16191D"
                />
                <path
                  d="M18.9293 12.8983C18.9555 12.9704 18.9163 13.0556 18.8379 13.0686C18.7923 13.0752 18.753 13.0686 18.74 13.0031C18.5505 12.6229 18.3872 12.2231 18.1912 11.8429C17.9366 11.6265 17.6687 11.4037 17.5121 11.0956C17.2312 10.5974 17.2572 9.94849 17.5708 9.46997C17.5968 9.43718 17.6165 9.39786 17.6427 9.36508C17.6884 9.29954 17.7863 9.31265 17.8124 9.39131C17.832 9.45031 17.845 9.50929 17.8713 9.56173C18.2239 10.6695 18.5637 11.7904 18.9293 12.8983Z"
                  fill="#16191D"
                />
                <path
                  d="M18.9816 7.62149C18.9686 7.91646 18.8576 8.19177 18.7857 8.47364C18.7791 8.4933 18.7726 8.50641 18.753 8.51296C18.7073 8.53264 18.6616 8.49985 18.6616 8.45398C18.6681 8.06722 18.8053 7.68704 18.7073 7.30684C18.5637 6.789 18.2109 6.33671 18.1848 5.78608C18.1716 5.49766 18.2435 5.2158 18.3024 4.93393C18.0933 4.49475 17.9953 3.99 18.1063 3.5115C18.1259 3.4525 18.1325 3.4525 18.1652 3.49837C18.3677 3.79336 18.6354 4.08834 18.6354 4.47507C18.6093 5.0257 18.3088 5.57632 18.5114 6.12695C18.6747 6.61857 19.0273 7.07742 18.9816 7.62149Z"
                  fill="#16191D"
                />
                <path
                  d="M20.7059 5.72059C20.6929 6.44164 20.0658 7.01848 20.1377 7.75265C20.1377 8.03452 20.2095 8.32294 20.1768 8.6048C20.1311 8.85388 19.8503 8.89322 19.6479 8.95222C19.5303 9.00466 19.3997 8.86701 19.4323 8.74901C19.4323 7.89686 19.4323 7.03816 19.4323 6.18601C19.4454 5.83204 19.5303 5.45839 19.7719 5.18965C19.9222 5.01265 20.0789 4.83568 20.2421 4.65868C20.2748 4.61934 20.2944 4.57347 20.288 4.52758C20.2748 4.37026 20.2421 4.23261 20.314 4.04906C20.425 3.81964 20.5689 3.68198 20.7189 3.53122C20.7452 3.505 20.7843 3.51811 20.7909 3.55088C20.8954 4.01629 20.7909 4.52102 20.5753 4.94055C20.6276 5.18965 20.7059 5.45183 20.7059 5.72059Z"
                  fill="#16191D"
                />
                <path
                  d="M28.9556 3.08527C28.0673 3.33435 27.6558 3.63587 27.3031 3.91774C27.3031 3.91774 28.1065 3.63587 29.2625 3.51134C32.5415 3.15082 32.7308 4.3766 36.4017 2.95416C36.5257 2.9345 36.5584 3.03282 36.5257 3.08527C36.0359 3.93742 35.4937 4.88133 33.4428 4.96655C31.209 5.05833 30.0464 4.16029 27.9497 4.42904C26.6108 4.59947 25.9184 5.01899 25.5329 5.27464C30.1051 4.39626 29.7263 6.41521 34.2069 5.34019C34.2592 5.32707 34.3181 5.31396 34.3704 5.32052C34.4878 5.33362 34.5337 5.47785 34.4618 5.55651C34.4291 5.59583 34.3834 5.63517 34.3508 5.67449C33.763 6.31032 33.1423 7.00516 31.0522 6.84784C28.5964 6.66429 28.4397 5.13699 23.7499 6.30377C28.2958 6.28411 28.2175 7.77865 31.6401 7.33291C31.7577 7.31981 31.8295 7.46402 31.7381 7.54268C31.6858 7.58855 31.6269 7.62789 31.5813 7.66722C31.0654 8.07362 30.3141 8.5718 28.9033 8.28338C25.9641 7.66722 26.3365 6.44798 22.5546 7.1166C25.5003 7.19526 25.2979 8.34238 28.3221 8.62425C28.3221 8.62425 28.3221 8.62425 28.3285 8.62425C28.4918 8.64391 28.5376 8.86022 28.4004 8.952C28.2958 9.02411 28.1782 9.07654 28.0673 9.12243C25.8597 9.98113 24.8341 7.20181 22.1235 7.82454C24.0634 7.99497 23.9066 8.65046 25.6571 9.12898C25.8465 9.18143 25.827 9.43708 25.6179 9.45674C23.5409 9.6665 23.7238 8.26372 22.4501 8.21128C22.1105 8.19817 21.7969 8.38172 21.6271 8.68325C21.1242 9.56161 21.3266 10.3941 21.2939 10.8464C21.4115 11.3184 21.588 11.7773 21.5944 12.2753C21.601 12.6228 21.5683 12.9833 21.4572 13.3176C21.2482 14.0124 21.0392 14.7074 20.8237 15.4088C20.778 15.5529 20.7844 15.7102 20.8367 15.8479C20.915 16.0577 20.9936 16.2609 21.0262 16.4837C21.1046 16.8573 21.0523 17.2441 20.9217 17.6046C20.6474 18.2798 20.3729 18.9549 20.0986 19.6367C20.0464 19.7611 20.0073 19.8924 19.9157 19.9972C19.7787 20.0234 19.7917 19.8465 19.8047 19.7611C20.0726 17.2375 20.3272 14.7138 20.5885 12.1901L20.7976 11.5871C20.3861 11.941 20.2032 12.4326 19.9354 12.8719C19.9027 12.9767 19.746 12.9964 19.7134 12.8785C19.7394 12.4392 19.7981 12.0001 19.8113 11.5609C19.8504 11.1151 19.844 10.6629 19.9943 10.2368C20.164 9.80416 20.4905 9.45674 20.7453 9.08311C21.1633 8.54559 21.4768 7.93597 21.6924 7.29358C21.823 6.90029 22.0974 6.55287 22.4501 6.33655C23.6715 5.56306 24.3834 4.89444 25.5395 4.01608C26.6042 3.2098 27.4272 2.58052 27.8975 2.39043C30.0464 1.5055 34.3638 2.45598 38.0607 0.0437405C38.1521 -0.00870427 38.2697 0.0961676 38.1979 0.246931C37.8517 1.12531 37.4402 1.68904 36.4604 2.17412C33.6388 3.57034 30.399 2.67885 28.9556 3.08527Z"
                  fill="#16191D"
                />
                <path
                  d="M20.3863 4.5996C20.3863 4.5996 20.1445 4.17352 19.5567 4.12107C19.1125 4.08175 18.9102 4.23252 18.9102 4.23252C18.9102 4.23252 19.4457 4.0752 19.8638 4.44883C20.2817 4.82246 20.0531 5.14367 20.0531 5.14367C20.0531 5.14367 20.5103 4.87491 20.3863 4.5996Z"
                  fill="#16191D"
                />
                <path
                  d="M20.3598 4.54062C20.3598 4.54062 20.0528 4.21288 19.4258 4.18665C19.4258 4.18665 19.798 4.27841 19.8439 4.48162C19.9222 4.86837 19.5826 5.38621 19.5173 5.63531C19.465 5.85818 20.3598 4.54062 20.3598 4.54062Z"
                  fill="#16191D"
                />
              </svg>