<svg xmlns="http://www.w3.org/2000/svg" width="22" height="20" viewBox="0 0 22 20" fill="none">
  <path d="M7.35715 13.4176H4.79592C3.17288 13.4176 1.85715 12.3107 1.85715 10.6877C1.85715 9.06462 3.17288 7.74889 4.79592 7.74889C4.90629 7.74889 5.01524 7.75498 5.12245 7.76683V7.74889H5.16287C5.1362 7.53495 5.12245 7.31699 5.12245 7.09583C5.12245 4.21042 7.46154 1.87134 10.3469 1.87134C12.3009 1.87134 14.0043 2.94395 14.9004 4.53248C15.1194 4.50027 15.3435 4.48358 15.5714 4.48358C18.0962 4.48358 20.1429 6.53028 20.1429 9.05501C20.1429 11.358 18.4399 13.0545 16.2245 13.3713H13.8571M10.6735 8.07542V18.1286M10.6735 18.1286L8.35715 15.8713M10.6735 18.1286L12.9286 15.8713" stroke="#388FF3" stroke-width="2" stroke-linecap="round" stroke-linejoin="round"/>
</svg>