<svg width="190" height="160" viewBox="0 0 190 160" fill="none" xmlns="http://www.w3.org/2000/svg">
  <path d="M96.4768 139.896C129.477 139.896 156.366 113.118 156.366 80.2293C156.366 47.2293 129.588 20.5626 96.4768 20.5626C63.3657 20.4515 36.5879 47.1182 36.5879 80.1182C36.5879 113.118 63.3657 139.896 96.4768 139.896Z" fill="#696A6D"/>
  <path d="M123.701 80.6734L122.701 80.0068C122.479 79.7845 122.479 79.5623 122.701 79.3401C122.923 79.1179 123.145 79.1179 123.479 79.229L124.479 79.8957C124.701 80.0068 124.701 80.3401 124.59 80.5623C124.256 80.7845 123.923 80.7845 123.701 80.6734Z" fill="#E3EAF2"/>
  <g filter="url(#filter0_d_1_5312)">
    <path d="M167.674 91.3452L144.227 124.499C143.427 125.651 141.793 125.919 140.698 125.018L108.628 101.792C107.475 100.992 107.208 99.3579 108.008 98.2051L138.577 55.9778C139.377 54.825 141.012 54.5577 142.106 55.4587L165.374 72.2562L167.674 91.3452Z" fill="#96999D"/>
  </g>
  <path d="M165.418 72.416L158.874 81.4203C158.016 82.674 158.268 84.5685 159.622 85.4851L167.777 91.4041" fill="#ADB1B9"/>
  <path d="M146.272 113.028L120.124 93.7604C119.476 93.2516 119.263 92.4557 119.772 91.8076L132.204 75.169C132.654 74.6218 133.609 74.3659 134.156 74.8164L160.362 93.9829C161.01 94.4917 161.223 95.2875 160.715 95.9357L148.283 112.574C147.774 113.222 146.877 113.377 146.272 113.028Z" fill="#A9ACB1"/>
  <path d="M136.162 101.41L124.119 92.4384L135.172 90.0739L136.162 101.41Z" fill="#C3C5C8"/>
  <path d="M146.16 108.795L128.773 95.7958L144.788 92.5283L146.16 108.795Z" fill="#D9DCDE"/>
  <path d="M135.795 86.6608C137.208 87.4765 138.959 87.0073 139.775 85.5945C140.59 84.1817 140.121 82.4307 138.708 81.615C137.296 80.7993 135.545 81.2685 134.729 82.6813C133.913 84.0942 134.382 85.8451 135.795 86.6608Z" fill="#C3C5C8"/>
  <path d="M156.792 75.2356L140.945 63.5299C140.743 63.4134 140.658 63.095 140.875 62.9515L140.992 62.7496C141.108 62.5478 141.427 62.4625 141.57 62.6799L157.417 74.3856C157.619 74.5022 157.704 74.8205 157.487 74.9641L157.37 75.1659C157.355 75.426 157.036 75.5113 156.792 75.2356Z" fill="#A4A8AE"/>
  <path d="M154.826 78.4076L138.777 66.5853C138.575 66.4688 138.49 66.1504 138.707 66.0069L138.824 65.805C138.94 65.6032 139.259 65.5179 139.402 65.7354L155.451 77.5576C155.653 77.6741 155.738 77.9925 155.521 78.136L155.404 78.3379C155.447 78.4971 155.028 78.5241 154.826 78.4076Z" fill="#A4A8AE"/>
  <path d="M136.377 111.754L116.483 97.0387C116.18 96.864 116.153 96.4447 116.428 96.2002C116.603 95.8975 117.023 95.8704 117.368 96.2044L137.162 110.862C137.465 111.037 137.492 111.456 137.216 111.7C136.94 111.945 136.622 112.03 136.377 111.754Z" fill="#A4A8AE"/>
  <path d="M150.555 79.9794L136.61 69.6408C136.308 69.466 136.281 69.0467 136.556 68.8022C136.731 68.4995 137.15 68.4725 137.496 68.8064L151.441 79.145C151.744 79.3198 151.771 79.7391 151.495 79.9836C151.278 80.1271 150.959 80.2124 150.555 79.9794Z" fill="#A4A8AE"/>
  <path d="M141.862 120.439L114.232 99.7775C113.929 99.6027 113.902 99.1835 114.177 98.939C114.352 98.6362 114.772 98.6092 115.117 98.9432L142.805 119.504C143.108 119.679 143.135 120.098 142.859 120.342C142.584 120.587 142.164 120.614 141.862 120.439Z" fill="#A4A8AE"/>
  <g filter="url(#filter1_d_1_5312)">
    <path d="M67.9504 63.2373L84.9386 100.119C85.5369 101.389 84.9512 102.938 83.6237 103.435L47.4749 119.596C46.2057 120.195 44.6565 119.609 44.0583 118.34L22.7731 70.752C22.1748 69.4827 22.7605 67.9336 24.088 67.4362L50.269 55.6845L67.9504 63.2373Z" fill="#96999D"/>
  </g>
  <path d="M50.4272 55.7285L54.9531 65.8982C55.6096 67.2683 57.3762 67.9976 58.8473 67.2828L68.0504 63.1804" fill="#ADB1B9"/>
  <path d="M76.026 92.6171L46.2661 105.628C45.5014 105.935 44.7055 105.721 44.3986 104.957L36.2052 85.8712C35.9565 85.2074 36.2124 84.2523 36.8762 84.0037L66.5777 70.8921C67.3424 70.5851 68.1383 70.7984 68.4452 71.5631L76.6387 90.6487C76.9456 91.4134 76.6314 92.2675 76.026 92.6171Z" fill="#A9ACB1"/>
  <path d="M60.9084 95.5613L47.1172 101.505L50.596 90.7508L60.9084 95.5613Z" fill="#C3C5C8"/>
  <path d="M72.3043 90.5943L52.3531 99.153L57.5307 83.6501L72.3043 90.5943Z" fill="#D9DCDE"/>
  <path d="M47.9546 88.5067C49.3675 87.691 49.8366 85.94 49.0209 84.5272C48.2052 83.1144 46.4543 82.6452 45.0414 83.4609C43.6286 84.2766 43.1595 86.0276 43.9751 87.4404C44.7908 88.8532 46.5418 89.3224 47.9546 88.5067Z" fill="#C3C5C8"/>
  <path d="M48.5582 64.6122L30.4974 72.4831C30.2956 72.5996 29.9772 72.5143 29.9616 72.2542L29.8451 72.0524C29.7285 71.8505 29.8138 71.5322 30.0739 71.5166L48.1348 63.6457C48.3366 63.5291 48.655 63.6144 48.6706 63.8745L48.7871 64.0764C49.0046 64.2199 48.9193 64.5383 48.5582 64.6122Z" fill="#A4A8AE"/>
  <path d="M50.3206 67.8985L32.0579 75.8859C31.8561 76.0024 31.5377 75.9171 31.5221 75.657L31.4056 75.4552C31.2891 75.2534 31.3744 74.935 31.6345 74.9194L49.8972 66.932C50.099 66.8154 50.4174 66.9007 50.433 67.1608L50.5495 67.3627C50.7087 67.4053 50.5224 67.7819 50.3206 67.8985Z" fill="#A4A8AE"/>
  <path d="M69.9771 100.549L47.2855 110.42C46.9828 110.595 46.6062 110.409 46.5323 110.048C46.3575 109.745 46.5437 109.369 47.0056 109.237L69.5963 99.4231C69.899 99.2484 70.2756 99.4346 70.3495 99.7956C70.4234 100.157 70.3381 100.475 69.9771 100.549Z" fill="#A4A8AE"/>
  <path d="M49.5455 72.3846L33.6195 79.2921C33.3168 79.4669 32.9401 79.2807 32.8663 78.9196C32.6915 78.6169 32.8777 78.2403 33.3396 78.1081L49.2656 71.2007C49.5684 71.0259 49.945 71.2121 50.0189 71.5731C50.0345 71.8332 49.9492 72.1516 49.5455 72.3846Z" fill="#A4A8AE"/>
  <path d="M80.2391 100.141L48.5306 113.739C48.2279 113.913 47.8513 113.727 47.7774 113.366C47.6026 113.063 47.7888 112.687 48.2508 112.555L79.9009 98.8563C80.2037 98.6815 80.5803 98.8677 80.6542 99.2287C80.7281 99.5897 80.5418 99.9663 80.2391 100.141Z" fill="#A4A8AE"/>
  <g filter="url(#filter2_d_1_5312)">
    <path d="M122.809 55.3467L123.42 102.278C123.456 103.9 122.109 105.26 120.474 105.162L74.7056 105.244C73.0841 105.28 71.7233 103.933 71.6879 102.312L71.5688 42.0559C71.5334 40.4344 72.8798 39.0736 74.5154 39.1721L107.685 39.0629L122.809 55.3467Z" fill="#96999D"/>
  </g>
  <path d="M107.832 39.1831L107.833 52.0492C107.883 53.8047 109.406 55.4048 111.295 55.3412L122.942 55.3329" fill="#ADB1B9"/>
  <path d="M117.537 90.1685L79.9959 89.9256C79.0442 89.8905 78.3038 89.2913 78.339 88.3396L78.6538 64.3345C78.703 63.5167 79.422 62.6283 80.2398 62.6776L117.767 62.7865C118.718 62.8216 119.459 63.4208 119.424 64.3725L119.109 88.3776C119.074 89.3294 118.341 90.0838 117.537 90.1685Z" fill="#A9ACB1"/>
  <path d="M100.189 86.1707L82.8324 85.9681L91.5592 76.2453L100.189 86.1707Z" fill="#C3C5C8"/>
  <path d="M114.556 86.2826L89.4649 85.9469L102.217 72.0078L114.556 86.2826Z" fill="#D9DCDE"/>
  <path d="M89.8239 72.638C91.6992 72.4404 93.0173 70.8117 92.8197 68.9365C92.6222 67.0612 90.9935 65.743 89.1182 65.9406C87.243 66.1382 85.9248 67.7669 86.1224 69.6421C86.32 71.5174 87.9486 72.8356 89.8239 72.638Z" fill="#C3C5C8"/>
  <path d="M101.685 47.6841L78.914 47.5102C78.6461 47.5385 78.3499 47.2988 78.4557 47.0168L78.4274 46.7489C78.3992 46.481 78.6389 46.1849 78.9209 46.2906L101.692 46.4645C101.96 46.4363 102.256 46.6759 102.15 46.9579L102.179 47.2258C102.341 47.4796 102.101 47.7757 101.685 47.6841Z" fill="#A4A8AE"/>
  <path d="M102.003 51.9852L78.9638 51.8396C78.6959 51.8678 78.3997 51.6282 78.5055 51.3461L78.4772 51.0782C78.449 50.8104 78.6887 50.5142 78.9707 50.62L102.01 50.7656C102.278 50.7374 102.574 50.977 102.468 51.2591L102.496 51.527C102.644 51.6468 102.271 51.957 102.003 51.9852Z" fill="#A4A8AE"/>
  <path d="M107.424 95.7025L78.8219 95.4658C78.42 95.5081 78.1098 95.1345 78.2014 94.7186C78.1591 94.3167 78.5327 94.0065 79.0826 94.084L107.55 94.3348C107.952 94.2925 108.262 94.6661 108.171 95.0821C108.079 95.498 107.839 95.7941 107.424 95.7025Z" fill="#A4A8AE"/>
  <path d="M99.0774 56.3572L79.0133 56.1689C78.6115 56.2113 78.3012 55.8377 78.3928 55.4217C78.3505 55.0199 78.7241 54.7096 79.274 54.7871L99.3381 54.9754C99.74 54.933 100.05 55.3067 99.9586 55.7226C99.8529 56.0046 99.6132 56.3007 99.0774 56.3572Z" fill="#A4A8AE"/>
  <path d="M118.449 100.091L78.5748 99.5522C78.173 99.5946 77.8627 99.221 77.9543 98.805C77.912 98.4032 78.2856 98.0929 78.8355 98.1704L118.696 98.5752C119.098 98.5328 119.408 98.9064 119.316 99.3224C119.225 99.7384 118.851 100.049 118.449 100.091Z" fill="#A4A8AE"/>
  <path d="M70.116 33.4052C69.6085 33.7295 68.9105 33.5322 68.5862 33.0246L65.54 27.251C65.2156 26.7435 65.413 26.0455 65.9205 25.7212C66.4281 25.3968 67.126 25.5941 67.4504 26.1017L70.4966 31.8753C70.9831 32.6366 70.7716 33.2006 70.116 33.4052Z" fill="#9FA3AB"/>
  <path d="M66.3149 39.7641C66.0752 40.0602 65.8215 40.2224 65.2716 40.1449L58.849 39.6027C58.2991 39.5252 57.7069 39.0459 57.7702 38.362C57.8477 37.8121 58.3271 37.2199 59.025 37.4172L65.4476 37.9594C65.9975 38.0369 66.5897 38.5162 66.5263 39.2C66.4065 39.3481 66.4347 39.616 66.3149 39.7641Z" fill="#9FA3AB"/>
  <path d="M78.3506 31.8601C78.2166 31.8742 78.0686 31.7543 77.8007 31.7826C77.3565 31.4231 77.152 30.7674 77.4973 30.1893L80.8455 24.69C81.205 24.2458 81.8606 24.0413 82.4388 24.3867C82.8829 24.7462 83.0875 25.4018 82.7421 25.9799L79.3939 31.4792C79.0062 31.6555 78.6185 31.8318 78.3506 31.8601Z" fill="#9FA3AB"/>
  <defs>
    <filter id="filter0_d_1_5312" x="85.5479" y="43.9202" width="104.126" height="114.636" filterUnits="userSpaceOnUse" color-interpolation-filters="sRGB">
      <feFlood flood-opacity="0" result="BackgroundImageFix"/>
      <feColorMatrix in="SourceAlpha" type="matrix" values="0 0 0 0 0 0 0 0 0 0 0 0 0 0 0 0 0 0 127 0" result="hardAlpha"/>
      <feOffset dy="11"/>
      <feGaussianBlur stdDeviation="11"/>
      <feColorMatrix type="matrix" values="0 0 0 0 0.397708 0 0 0 0 0.47749 0 0 0 0 0.575 0 0 0 0.27 0"/>
      <feBlend mode="normal" in2="BackgroundImageFix" result="effect1_dropShadow_1_5312"/>
      <feBlend mode="normal" in="SourceGraphic" in2="effect1_dropShadow_1_5312" result="shape"/>
    </filter>
    <filter id="filter1_d_1_5312" x="0.539062" y="44.6846" width="106.634" height="108.147" filterUnits="userSpaceOnUse" color-interpolation-filters="sRGB">
      <feFlood flood-opacity="0" result="BackgroundImageFix"/>
      <feColorMatrix in="SourceAlpha" type="matrix" values="0 0 0 0 0 0 0 0 0 0 0 0 0 0 0 0 0 0 127 0" result="hardAlpha"/>
      <feOffset dy="11"/>
      <feGaussianBlur stdDeviation="11"/>
      <feColorMatrix type="matrix" values="0 0 0 0 0.397708 0 0 0 0 0.47749 0 0 0 0 0.575 0 0 0 0.27 0"/>
      <feBlend mode="normal" in2="BackgroundImageFix" result="effect1_dropShadow_1_5312"/>
      <feBlend mode="normal" in="SourceGraphic" in2="effect1_dropShadow_1_5312" result="shape"/>
    </filter>
    <filter id="filter2_d_1_5312" x="49.5684" y="28.063" width="95.8525" height="110.182" filterUnits="userSpaceOnUse" color-interpolation-filters="sRGB">
      <feFlood flood-opacity="0" result="BackgroundImageFix"/>
      <feColorMatrix in="SourceAlpha" type="matrix" values="0 0 0 0 0 0 0 0 0 0 0 0 0 0 0 0 0 0 127 0" result="hardAlpha"/>
      <feOffset dy="11"/>
      <feGaussianBlur stdDeviation="11"/>
      <feColorMatrix type="matrix" values="0 0 0 0 0.397708 0 0 0 0 0.47749 0 0 0 0 0.575 0 0 0 0.27 0"/>
      <feBlend mode="normal" in2="BackgroundImageFix" result="effect1_dropShadow_1_5312"/>
      <feBlend mode="normal" in="SourceGraphic" in2="effect1_dropShadow_1_5312" result="shape"/>
    </filter>
  </defs>
</svg>

