<svg width="374" height="395" viewBox="0 0 374 395" fill="none" xmlns="http://www.w3.org/2000/svg">
<g filter="url(#filter0_d_1_6114)">
<mask id="path-1-inside-1_1_6114" fill="white">
<path fill-rule="evenodd" clip-rule="evenodd" d="M94.2834 28.2539H346C352.627 28.2539 358 33.6265 358 40.2539V439C358 445.628 352.627 451 346 451H28C21.3726 451 16 445.628 16 439V40.2539C16 33.6265 21.3726 28.2539 28 28.2539H62.9714L75.9227 14.1428C77.4165 12.5152 79.8384 12.5152 81.3321 14.1428L94.2834 28.2539Z"/>
</mask>
<path fill-rule="evenodd" clip-rule="evenodd" d="M94.2834 28.2539H346C352.627 28.2539 358 33.6265 358 40.2539V439C358 445.628 352.627 451 346 451H28C21.3726 451 16 445.628 16 439V40.2539C16 33.6265 21.3726 28.2539 28 28.2539H62.9714L75.9227 14.1428C77.4165 12.5152 79.8384 12.5152 81.3321 14.1428L94.2834 28.2539Z" fill="white"/>
<path d="M94.2834 28.2539L93.5467 28.9301L93.8439 29.2539H94.2834V28.2539ZM62.9714 28.2539V29.2539H63.4109L63.7081 28.9301L62.9714 28.2539ZM75.9227 14.1428L76.6594 14.819L75.9227 14.1428ZM81.3321 14.1428L80.5954 14.819V14.819L81.3321 14.1428ZM94.2834 29.2539H346V27.2539H94.2834V29.2539ZM346 29.2539C352.075 29.2539 357 34.1788 357 40.2539H359C359 33.0742 353.18 27.2539 346 27.2539V29.2539ZM357 40.2539V439H359V40.2539H357ZM357 439C357 445.075 352.075 450 346 450V452C353.18 452 359 446.18 359 439H357ZM346 450H28V452H346V450ZM28 450C21.9249 450 17 445.075 17 439H15C15 446.18 20.8203 452 28 452V450ZM17 439V40.2539H15V439H17ZM17 40.2539C17 34.1788 21.9249 29.2539 28 29.2539V27.2539C20.8203 27.2539 15 33.0742 15 40.2539H17ZM28 29.2539H62.9714V27.2539H28V29.2539ZM63.7081 28.9301L76.6594 14.819L75.186 13.4666L62.2347 27.5777L63.7081 28.9301ZM76.6594 14.819C77.7569 13.6232 79.4979 13.6232 80.5954 14.819L82.0689 13.4666C80.1788 11.4073 77.076 11.4073 75.186 13.4666L76.6594 14.819ZM80.5954 14.819L93.5467 28.9301L95.0202 27.5777L82.0689 13.4666L80.5954 14.819Z" fill="#EAEDF0" mask="url(#path-1-inside-1_1_6114)"/>
</g>
<defs>
<filter id="filter0_d_1_6114" x="0" y="0.922119" width="374" height="470.078" filterUnits="userSpaceOnUse" color-interpolation-filters="sRGB">
<feFlood flood-opacity="0" result="BackgroundImageFix"/>
<feColorMatrix in="SourceAlpha" type="matrix" values="0 0 0 0 0 0 0 0 0 0 0 0 0 0 0 0 0 0 127 0" result="hardAlpha"/>
<feOffset dy="4"/>
<feGaussianBlur stdDeviation="8"/>
<feComposite in2="hardAlpha" operator="out"/>
<feColorMatrix type="matrix" values="0 0 0 0 0 0 0 0 0 0 0 0 0 0 0 0 0 0 0.02 0"/>
<feBlend mode="normal" in2="BackgroundImageFix" result="effect1_dropShadow_1_6114"/>
<feBlend mode="normal" in="SourceGraphic" in2="effect1_dropShadow_1_6114" result="shape"/>
</filter>
</defs>
</svg>
