<svg width="120" height="108" viewBox="0 0 120 108" fill="none" xmlns="http://www.w3.org/2000/svg">
<path d="M95.5437 107.999C97.4976 108.004 99.3811 107.268 100.817 105.939C106.805 100.379 111.596 93.6495 114.895 86.164C118.193 78.6784 119.93 70.5953 119.997 62.4118C120.304 29.1364 93.3295 1.7568 60.1448 1.67827C26.9412 1.5997 3.94111e-05 28.5671 3.94111e-05 61.8444C-0.00944013 70.1268 1.69127 78.3215 4.99507 85.9125C8.29888 93.5035 13.1342 100.326 19.1967 105.951C20.6292 107.274 22.5072 108.006 24.4547 107.999H95.5437Z" fill="url(#paint0_linear_1_3499)"/>
<path d="M41.4211 107.832C40.3942 107.832 39.4062 107.441 38.6591 106.739C37.912 106.037 37.4623 105.076 37.402 104.055L32.4512 20.1105H95.551L90.6002 104.055C90.5399 105.076 90.0902 106.037 89.3431 106.739C88.596 107.441 87.608 107.832 86.5811 107.832H41.4211Z" fill="#F0F3F7"/>
<path fill-rule="evenodd" clip-rule="evenodd" d="M99.7815 8.8988C100.907 8.8988 101.819 9.80828 101.819 10.9302V20.2531C101.819 21.375 100.907 22.2845 99.7815 22.2845H28.2255C27.0999 22.2845 26.1875 21.375 26.1875 20.2531V10.9302C26.1875 9.80828 27.0999 8.8988 28.2255 8.8988H99.7815Z" fill="#F0F3F7"/>
<path fill-rule="evenodd" clip-rule="evenodd" d="M42.0187 15.8598C41.6707 15.8599 41.3291 15.7668 41.0295 15.5904C40.7299 15.414 40.4833 15.1606 40.3154 14.8568C40.1476 14.553 40.0646 14.2098 40.0751 13.8631C40.0857 13.5165 40.1894 13.1789 40.3754 12.8858L46.9295 2.55478C47.424 1.77044 48.1106 1.12441 48.9246 0.677483C49.7387 0.230553 50.6534 -0.00258017 51.5828 2.15392e-05H67.5214C68.4508 -0.00258017 69.3655 0.230553 70.1796 0.677483C70.9936 1.12441 71.6802 1.77044 72.1747 2.55478L78.7288 12.8858C78.9149 13.1789 79.0186 13.5165 79.0291 13.8631C79.0397 14.2098 78.9567 14.553 78.7888 14.8568C78.6209 15.1606 78.3743 15.414 78.0747 15.5904C77.7751 15.7668 77.4335 15.8599 77.0855 15.8598H77.0855H42.0187ZM73.5552 11.9835L68.888 4.6265C68.7428 4.39617 68.5411 4.20646 68.302 4.07522C68.063 3.94398 67.7943 3.87553 67.5214 3.8763H51.5828C51.3099 3.87553 51.0412 3.94398 50.8021 4.07522C50.5631 4.20646 50.3614 4.39617 50.2162 4.6265L45.549 11.9835H73.5552Z" fill="#E93C47"/>
<path d="M33.4172 107.832C32.3903 107.832 31.4023 107.441 30.6552 106.739C29.9081 106.037 29.4584 105.076 29.3981 104.055L24.4473 20.1105H87.5471L82.5963 104.055C82.536 105.076 82.0863 106.037 81.3392 106.739C80.5921 107.441 79.6041 107.832 78.5772 107.832H33.4172Z" fill="#EAEDF0"/>
<path fill-rule="evenodd" clip-rule="evenodd" d="M91.7757 8.8988C92.9012 8.8988 93.8136 9.80828 93.8136 10.9302V20.1367C93.8136 21.2586 92.9012 22.168 91.7757 22.168H20.2196C19.0941 22.168 18.1816 21.2586 18.1816 20.1367V10.9302C18.1816 9.80828 19.0941 8.8988 20.2196 8.8988H91.7757Z" fill="#EAEDF0"/>
<path fill-rule="evenodd" clip-rule="evenodd" d="M58.8749 28.5363C60.0961 28.5363 61.0862 29.5231 61.0862 30.7404V100.204C61.0862 101.422 60.0961 102.409 58.8749 102.409H58.8695C57.6482 102.409 56.6582 101.422 56.6582 100.204V30.7404C56.6582 29.5231 57.6482 28.5363 58.8695 28.5363H58.8749Z" fill="#E93C47"/>
<path d="M42.3034 101.801C41.8923 101.411 41.6474 100.879 41.6193 100.314L38.1648 30.8495C38.15 30.5512 38.1961 30.253 38.3004 29.9731C38.4047 29.6931 38.565 29.4372 38.7715 29.2209C38.9781 29.0046 39.2266 28.8323 39.5019 28.7146C39.7773 28.5969 40.0738 28.5363 40.3734 28.5363C40.9409 28.5363 41.4867 28.7537 41.8978 29.1437C42.3089 29.5337 42.5538 30.0663 42.5819 30.6312L46.0364 100.095C46.0512 100.394 46.0051 100.692 45.9008 100.972C45.7965 101.252 45.6362 101.508 45.4297 101.724C45.2231 101.94 44.9746 102.112 44.6993 102.23C44.4239 102.348 44.1274 102.409 43.8278 102.409C43.2603 102.409 42.7145 102.191 42.3034 101.801Z" fill="#E93C47"/>
<path d="M75.4427 101.801C75.8538 101.411 76.0987 100.879 76.1268 100.314L79.5813 30.8495C79.5961 30.5512 79.55 30.253 79.4457 29.9731C79.3414 29.6931 79.1811 29.4372 78.9746 29.2209C78.768 29.0046 78.5195 28.8323 78.2442 28.7146C77.9688 28.5969 77.6723 28.5363 77.3727 28.5363C76.8052 28.5363 76.2594 28.7537 75.8483 29.1437C75.4372 29.5337 75.1923 30.0663 75.1642 30.6312L71.7097 100.095C71.6949 100.394 71.741 100.692 71.8453 100.972C71.9496 101.252 72.1099 101.508 72.3164 101.724C72.523 101.94 72.7715 102.112 73.0468 102.23C73.3222 102.348 73.6187 102.409 73.9183 102.409C74.4858 102.409 75.0316 102.191 75.4427 101.801Z" fill="#E93C47"/>
<path d="M87.4227 22.1682L87.293 24.3832H24.6997L24.5684 22.1682H87.4227Z" fill="#16191D" fill-opacity="0.05"/>
<defs>
<linearGradient id="paint0_linear_1_3499" x1="0" y1="1.6781" x2="0" y2="107.999" gradientUnits="userSpaceOnUse">
<stop stop-color="#FBFDFE"/>
<stop offset="1" stop-color="#F0F5FA"/>
</linearGradient>
</defs>
</svg>
