            <svg
              width="57"
              height="14"
              viewBox="0 0 57 14"
              fill="none"
              xmlns="http://www.w3.org/2000/svg"
            >
              <path
                d="M29.6705 10.5042C28.8204 10.6451 27.9597 10.7104 27.0984 10.6995C25.4829 10.6995 23.7505 9.63118 23.7505 6.64813V4.90226C23.7505 1.73927 25.5666 0.839678 27.2129 0.839678C28.0357 0.832303 28.8577 0.89323 29.6705 1.02182C29.7851 1.03515 29.8909 1.08624 29.8909 1.21729V1.86809C29.8909 1.95916 29.8402 1.99916 29.7233 1.99916H29.6726C28.91 1.93473 28.315 1.90807 27.2151 1.90807C26.0139 1.90807 24.9274 2.55889 24.9274 4.90226V6.64813C24.9274 8.79835 25.8972 9.64457 27.1005 9.64457C27.8875 9.64457 28.423 9.5935 28.7271 9.56671V5.84184C28.7244 5.80896 28.7283 5.77586 28.7388 5.74459C28.7492 5.71332 28.766 5.68452 28.7877 5.65998C28.8097 5.63543 28.8363 5.61565 28.8661 5.60186C28.8959 5.58806 28.928 5.58052 28.9606 5.57974H29.6594C29.7258 5.58317 29.7885 5.61236 29.834 5.66122C29.8796 5.71006 29.9046 5.77479 29.9041 5.84184V10.2176C29.9061 10.2858 29.8834 10.3524 29.8406 10.4051C29.7976 10.4578 29.7371 10.4929 29.6705 10.5042Z"
                fill="#B8BBBD"
              />
              <path
                d="M34.722 4.35586C34.1203 4.3318 33.5179 4.37577 32.9258 4.4869V10.3487C32.929 10.4122 32.9079 10.4745 32.8669 10.5228C32.8258 10.5712 32.7682 10.6019 32.7054 10.6085H32.0332C31.968 10.6051 31.907 10.5758 31.8631 10.5272C31.8194 10.4785 31.7966 10.4144 31.7996 10.3487V4.01822C31.8033 3.95281 31.8267 3.89008 31.8663 3.83819C31.9061 3.7863 31.9604 3.74764 32.0221 3.72725C32.7582 3.40074 33.651 3.36298 34.722 3.36298C34.8917 3.36298 34.9954 3.3763 34.9954 3.55843V4.15595C34.9954 4.29145 34.969 4.35586 34.722 4.35586Z"
                fill="#B8BBBD"
              />
              <path
                d="M39.0107 10.6995C37.1109 10.6995 36.1455 9.43581 36.1455 7.52105V6.53039C36.1455 4.61572 37.1152 3.35406 39.0107 3.35406C40.9061 3.35406 41.876 4.61572 41.876 6.53039V7.52105C41.876 9.43581 40.8995 10.6995 39.0107 10.6995ZM40.7562 6.53039C40.7562 5.19767 40.2252 4.35584 39.0107 4.35584C37.7963 4.35584 37.2783 5.191 37.2783 6.53039V7.52105C37.2783 8.85369 37.7963 9.69777 39.0107 9.69777C40.2252 9.69777 40.7562 8.86262 40.7562 7.52105V6.53039Z"
                fill="#B8BBBD"
              />
              <path
                d="M46.187 10.6995H46.0637C45.182 10.6995 43.4013 10.2042 43.4013 7.63878V3.70501C43.3984 3.67187 43.4025 3.63852 43.4132 3.60707C43.4239 3.57561 43.4411 3.54675 43.4636 3.52231C43.4859 3.49788 43.513 3.4784 43.5433 3.46511C43.5737 3.45183 43.6063 3.44502 43.6391 3.44513H44.3115C44.344 3.44563 44.3763 3.45288 44.4059 3.46643C44.4357 3.47999 44.4623 3.49956 44.4843 3.52393C44.5062 3.54831 44.5228 3.57697 44.5333 3.60811C44.5439 3.63927 44.5478 3.67225 44.5451 3.70501V7.63878C44.5451 9.19368 45.2063 9.69777 46.0703 9.69777H46.187C47.0511 9.69777 47.7122 9.20243 47.7122 7.63878V3.70501C47.7096 3.67243 47.7135 3.63962 47.7238 3.60862C47.7342 3.57763 47.7506 3.54907 47.7724 3.52474C47.794 3.5004 47.8204 3.48077 47.8498 3.46709C47.8793 3.4534 47.9112 3.44593 47.9437 3.44513H48.6159C48.6485 3.44563 48.6807 3.45288 48.7105 3.46643C48.7401 3.47999 48.7669 3.49956 48.7888 3.52393C48.8106 3.54831 48.8274 3.57697 48.8379 3.60811C48.8482 3.63927 48.8523 3.67225 48.8495 3.70501V7.63878C48.8495 10.2042 47.0643 10.6995 46.187 10.6995Z"
                fill="#B8BBBD"
              />
              <path
                d="M53.2556 10.6997C52.7486 10.6929 52.2431 10.6454 51.7436 10.5575V12.9142C51.7436 12.9467 51.7373 12.9787 51.725 13.0087C51.7127 13.0385 51.6947 13.0657 51.672 13.0887C51.6492 13.1115 51.6222 13.1298 51.5926 13.1421C51.5628 13.1544 51.5311 13.1608 51.4989 13.1608H50.8378C50.8062 13.1605 50.775 13.1539 50.7461 13.1414C50.7172 13.1287 50.6911 13.1103 50.6693 13.0873C50.6474 13.0644 50.6304 13.0371 50.6194 13.0074C50.6081 12.9778 50.6029 12.946 50.6042 12.9142V3.94949C50.6042 3.78069 50.6438 3.70294 50.8753 3.65185C51.6542 3.46152 52.452 3.36094 53.2534 3.35199C55.1796 3.35199 56.0724 4.61363 56.0724 6.56829V7.50342C56.0745 9.55363 55.1421 10.6997 53.2556 10.6997ZM54.935 6.57051C54.935 5.20225 54.5361 4.31821 53.2556 4.31821C52.749 4.32117 52.2434 4.36424 51.7436 4.44704V9.6047C52.2436 9.68737 52.749 9.7313 53.2556 9.73576C54.5229 9.73576 54.935 8.90275 54.935 7.51453V6.57051Z"
                fill="#B8BBBD"
              />
              <path
                d="M7.17398 10.593C6.59206 10.6841 4.96979 10.7996 4.40786 10.7996C1.91298 10.7996 0.220215 10.1688 0.220215 7.01029V1.25292C0.22075 1.21957 0.22789 1.18667 0.241274 1.15614C0.254657 1.12562 0.273749 1.09807 0.297839 1.07512C0.321751 1.05216 0.350125 1.03425 0.380997 1.02245C0.412047 1.01064 0.445061 1.00518 0.478074 1.00636H2.58519C2.6182 1.00488 2.65139 1.01013 2.68244 1.02182C2.71349 1.03352 2.74204 1.05139 2.76613 1.07441C2.79005 1.09743 2.80932 1.1251 2.82253 1.15576C2.83573 1.18644 2.84269 1.21948 2.84305 1.25292V7.01029C2.84305 8.18309 3.23099 8.56513 4.15 8.56513C4.56489 8.56379 4.97925 8.53708 5.39093 8.48517V1.25292C5.39111 1.21948 5.39807 1.18644 5.41127 1.15576C5.42448 1.1251 5.44375 1.09743 5.46784 1.07441C5.49193 1.05139 5.5203 1.03352 5.55135 1.02182C5.5824 1.01013 5.61559 1.00488 5.64878 1.00636H7.74252C7.81086 1.00332 7.87743 1.0275 7.92828 1.07362C7.97896 1.11977 8.00966 1.18417 8.01358 1.25292V9.58913C8.01358 10.3177 7.7932 10.502 7.17398 10.593Z"
                fill="#16191D"
              />
              <path
                d="M12.0712 10.6834H9.95084C9.88303 10.6818 9.81861 10.6534 9.77114 10.6043C9.72385 10.5553 9.69727 10.4896 9.69727 10.4214V1.2522C9.69798 1.21923 9.70494 1.18672 9.71797 1.15649C9.73099 1.12626 9.74991 1.0989 9.77346 1.07601C9.79702 1.05311 9.82467 1.03512 9.85519 1.02304C9.88552 1.01097 9.91818 1.00506 9.95084 1.00565H12.0712C12.1042 1.00415 12.1374 1.0094 12.1684 1.0211C12.1995 1.03279 12.228 1.05069 12.2519 1.0737C12.276 1.0967 12.2953 1.12438 12.3085 1.15506C12.3217 1.18572 12.3287 1.21877 12.329 1.2522V10.4214C12.3292 10.4557 12.3228 10.4896 12.3099 10.5214C12.2971 10.5532 12.2782 10.5821 12.2542 10.6066C12.2302 10.6309 12.2018 10.6502 12.1702 10.6634C12.1388 10.6766 12.1051 10.6834 12.0712 10.6834Z"
                fill="#16191D"
              />
              <path
                d="M19.5673 10.5661C18.9793 10.735 18.3692 10.8138 17.7578 10.7993C15.3796 10.7993 13.7773 9.49775 13.7773 6.51465V5.18193C13.7773 2.18995 15.3796 0.888333 17.7578 0.888333C18.3692 0.875101 18.9789 0.953705 19.5673 1.12156C19.7744 1.1882 19.8517 1.22595 19.8517 1.4081V3.07623C19.8517 3.24502 19.7745 3.32277 19.6313 3.32277H19.5915C18.9909 3.25204 18.3868 3.21349 17.7821 3.20728C17.0835 3.20728 16.4596 3.51825 16.4596 5.17303V6.50576C16.4596 8.14722 17.0811 8.47375 17.7821 8.47375C18.3868 8.46691 18.9909 8.42762 19.5915 8.35602H19.6158C19.7702 8.35602 19.8362 8.43377 19.8362 8.60258V10.2795C19.8517 10.4484 19.7744 10.5016 19.5673 10.5661Z"
                fill="#16191D"
              />
            </svg>