<svg xmlns="http://www.w3.org/2000/svg" width="1216" height="243" viewBox="0 0 1216 243" fill="none">
  <g filter="url(#filter0_d_1_3687)">
    <path d="M103.339 28.2183C100.256 28.2183 98.7137 28.2183 97.2715 27.8552C95.9931 27.5334 94.7765 27.0031 93.6705 26.2857C92.4228 25.4763 91.3733 24.3469 89.2742 22.088L83.659 16.0453C82.03 14.2922 81.2154 13.4157 80.2624 13.0905C79.425 12.8047 78.5164 12.8047 77.679 13.0905C76.726 13.4157 75.9114 14.2922 74.2824 16.0453L68.6672 22.088C66.5682 24.3469 65.5186 25.4763 64.2709 26.2857C63.1649 27.0031 61.9483 27.5334 60.6699 27.8552C59.2277 28.2183 57.6859 28.2183 54.6023 28.2183H35.2C28.4794 28.2183 25.1191 28.2183 22.5521 29.6258C20.2942 30.8639 18.4584 32.8394 17.3079 35.2693C16 38.0317 16 41.6478 16 48.8802V202.338C16 209.57 16 213.187 17.3079 215.949C18.4584 218.379 20.2942 220.354 22.5521 221.593C25.1191 223 28.4793 223 35.1999 223H1180.8C1187.52 223 1190.88 223 1193.45 221.593C1195.71 220.354 1197.54 218.379 1198.69 215.949C1200 213.187 1200 209.57 1200 202.338V48.8802C1200 41.6479 1200 38.0317 1198.69 35.2693C1197.54 32.8394 1195.71 30.8639 1193.45 29.6258C1190.88 28.2183 1187.52 28.2183 1180.8 28.2183H103.339Z" fill="white"/>
    <path d="M97.1494 28.3401C98.6519 28.7183 100.251 28.7183 103.256 28.7183H103.339H1180.8C1184.17 28.7183 1186.66 28.7187 1188.64 28.8923C1190.6 29.0652 1192.01 29.4072 1193.21 30.0642C1195.37 31.2493 1197.13 33.1441 1198.24 35.4832C1198.86 36.7855 1199.18 38.3111 1199.34 40.4364C1199.5 42.5664 1199.5 45.2564 1199.5 48.8802V202.338C1199.5 205.962 1199.5 208.652 1199.34 210.782C1199.18 212.907 1198.86 214.433 1198.24 215.735C1197.13 218.074 1195.37 219.969 1193.21 221.154C1192.01 221.811 1190.6 222.153 1188.64 222.326C1186.66 222.5 1184.17 222.5 1180.8 222.5H35.1999C31.8308 222.5 29.3362 222.5 27.3622 222.326C25.3952 222.153 23.9906 221.811 22.7925 221.154C20.6312 219.969 18.8673 218.074 17.7598 215.735C17.1432 214.433 16.8234 212.907 16.6621 210.782C16.5003 208.652 16.5 205.962 16.5 202.338V48.8802C16.5 45.2564 16.5003 42.5664 16.6621 40.4364C16.8234 38.3111 17.1432 36.7855 17.7598 35.4832C18.8673 33.1441 20.6312 31.2493 22.7925 30.0642C23.9906 29.4072 25.3952 29.0652 27.3622 28.8923C29.3363 28.7187 31.8308 28.7183 35.2 28.7183H54.6023H54.6855C57.6902 28.7183 59.2895 28.7183 60.792 28.3401C62.1236 28.0048 63.391 27.4525 64.543 26.7052C65.8429 25.862 66.9315 24.6905 68.9768 22.4894L69.0335 22.4284L74.6487 16.3856C75.469 15.5028 76.0635 14.8637 76.5707 14.4022C77.0739 13.9444 77.4565 13.6947 77.8405 13.5637C78.5732 13.3137 79.3682 13.3137 80.101 13.5637C80.4849 13.6947 80.8675 13.9444 81.3707 14.4022C81.8779 14.8637 82.4724 15.5028 83.2927 16.3856L88.9079 22.4284L88.9647 22.4894C91.0099 24.6905 92.0985 25.862 93.3984 26.7052C94.5505 27.4525 95.8177 28.0048 97.1494 28.3401Z" stroke="#EAEDF0"/>
  </g>
  <defs>
    <filter id="filter0_d_1_3687" x="0" y="0.87616" width="1216" height="242.124" filterUnits="userSpaceOnUse" color-interpolation-filters="sRGB">
      <feFlood flood-opacity="0" result="BackgroundImageFix"/>
      <feColorMatrix in="SourceAlpha" type="matrix" values="0 0 0 0 0 0 0 0 0 0 0 0 0 0 0 0 0 0 127 0" result="hardAlpha"/>
      <feOffset dy="4"/>
      <feGaussianBlur stdDeviation="8"/>
      <feComposite in2="hardAlpha" operator="out"/>
      <feColorMatrix type="matrix" values="0 0 0 0 0 0 0 0 0 0 0 0 0 0 0 0 0 0 0.02 0"/>
      <feBlend mode="normal" in2="BackgroundImageFix" result="effect1_dropShadow_1_3687"/>
      <feBlend mode="normal" in="SourceGraphic" in2="effect1_dropShadow_1_3687" result="shape"/>
    </filter>
  </defs>
</svg>