<svg width="21" height="21" viewBox="0 0 21 21" fill="none" xmlns="http://www.w3.org/2000/svg">
<path d="M17.7192 16.1425C17.7192 16.1425 16.7536 17.0908 16.517 17.3688C16.1316 17.7802 15.6774 17.9744 15.0821 17.9744C15.0248 17.9744 14.9637 17.9744 14.9065 17.9706C13.773 17.8982 12.7197 17.4564 11.9297 17.0794C9.7696 16.0358 7.87284 14.5543 6.29667 12.6766C4.99527 11.1113 4.12513 9.66399 3.54885 8.11008C3.19392 7.16173 3.06416 6.42286 3.12141 5.72588C3.15957 5.28027 3.33131 4.91084 3.64807 4.59472L4.94947 3.29599C5.13647 3.12079 5.33493 3.02557 5.52957 3.02557C5.77 3.02557 5.96464 3.1703 6.08676 3.29218C6.09058 3.29599 6.09439 3.29979 6.09821 3.3036C6.33101 3.52069 6.55236 3.7454 6.78517 3.98535C6.90347 4.10722 7.0256 4.2291 7.14773 4.35478L8.18961 5.39453C8.59415 5.79825 8.59415 6.17149 8.18961 6.57521C8.07893 6.68566 7.97207 6.7961 7.86139 6.90275C7.54082 7.23029 7.79265 6.97897 7.46062 7.27604C7.45299 7.28366 7.44535 7.28747 7.44154 7.29508C7.11333 7.62262 7.17439 7.94255 7.24309 8.15964C7.2469 8.17106 7.25072 8.18249 7.25453 8.19392C7.5255 8.849 7.90714 9.46599 8.48724 10.2011L8.49105 10.2049C9.54438 11.4998 10.655 12.5091 11.88 13.2822C12.0365 13.3813 12.1968 13.4612 12.3494 13.5374C12.4868 13.606 12.6166 13.6707 12.7273 13.7393C12.7425 13.7469 12.7578 13.7583 12.7731 13.7659C12.9028 13.8307 13.025 13.8611 13.1509 13.8611C13.4677 13.8611 13.6661 13.6631 13.731 13.5983L14.4791 12.8518C14.6088 12.7223 14.8149 12.5662 15.0553 12.5662C15.292 12.5662 15.4866 12.7147 15.6049 12.8442C15.6087 12.848 15.6087 12.848 15.6125 12.8518L17.7154 14.9504C18.1085 15.3388 17.7192 16.1425 17.7192 16.1425Z" stroke="white" stroke-width="1.5" stroke-linecap="round" stroke-linejoin="round"/>
</svg>
