<svg width="120" height="106" viewBox="0 0 120 106" fill="none" xmlns="http://www.w3.org/2000/svg">
<path d="M95.5437 106C97.4976 106.005 99.3811 105.271 100.817 103.946C106.805 98.4027 111.596 91.6934 114.895 84.2305C118.193 76.7676 119.93 68.7089 119.997 60.5501C120.304 27.3753 93.3295 0.0784633 60.1448 0.000170752C26.9412 -0.0781661 3.94111e-05 26.8077 3.94111e-05 59.9844C-0.00944013 68.2418 1.69127 76.4117 4.99507 83.9798C8.29888 91.5478 13.1342 98.35 19.1967 103.958C20.6292 105.277 22.5072 106.006 24.4547 106H95.5437Z" fill="url(#paint0_linear_1_3524)"/>
<path d="M65.9031 68.3999L72.6972 68.3999C73.7269 68.3999 74.7144 67.9943 75.4425 67.2723C76.1706 66.5502 76.5796 65.571 76.5796 64.5499L76.5796 41.4499C76.5796 40.4288 76.1706 39.4496 75.4425 38.7275C74.7144 38.0055 73.7269 37.5999 72.6972 37.5999L65.9031 37.5999M65.4206 52.9999L43.4206 52.9999M43.4206 52.9999L51.8267 61.7999M43.4206 52.9999L51.8267 44.1999" stroke="#E93C47" stroke-width="4" stroke-linecap="round" stroke-linejoin="round"/>
<defs>
<linearGradient id="paint0_linear_1_3524" x1="0" y1="0" x2="0" y2="106" gradientUnits="userSpaceOnUse">
<stop stop-color="#FEFBFB"/>
<stop offset="1" stop-color="#FAF0F0"/>
</linearGradient>
</defs>
</svg>
