<svg width="120" height="113" viewBox="0 0 120 113" fill="none" xmlns="http://www.w3.org/2000/svg">
<path d="M95.5437 112.982C97.4976 112.987 99.3811 112.25 100.817 110.919C106.805 105.352 111.596 98.6137 114.895 91.1183C118.193 83.6229 119.93 75.5292 119.997 67.335C120.304 34.0159 93.3295 6.60029 60.1448 6.52166C26.9412 6.44298 3.94258e-05 33.4458 3.94258e-05 66.7668C-0.00944189 75.0601 1.69126 83.2656 4.99507 90.8665C8.29887 98.4675 13.1342 105.299 19.1966 110.932C20.6292 112.256 22.5072 112.989 24.4547 112.982H95.5437Z" fill="url(#paint0_linear_1_5217)"/>
<path d="M71.6762 7.04626C70.6849 7.03753 69.7164 6.74803 68.8835 6.21143C68.0506 5.67484 67.3875 4.91321 66.9713 4.01517C66.3973 2.81312 65.4939 1.79799 64.3656 1.08737C63.2373 0.376754 61.9304 -0.000262065 60.5962 1.36671e-07H59.4003V0.102723C58.2782 0.29575 57.2194 0.756395 56.314 1.44548C55.4086 2.13457 54.6834 3.03171 54.1999 4.06061C53.7846 4.95108 53.1236 5.70492 52.2942 6.23373C51.4649 6.76254 50.5017 7.0444 49.5176 7.04626H44.703C44.3642 7.04626 44.0287 7.11286 43.7157 7.24227C43.4027 7.37167 43.1183 7.56135 42.8787 7.80046C42.6391 8.03957 42.4491 8.32343 42.3194 8.63585C42.1898 8.94826 42.123 9.2831 42.123 9.62125V13.7829C42.123 14.4658 42.3949 15.1208 42.8787 15.6037C43.3625 16.0866 44.0188 16.3579 44.703 16.3579H76.4894C77.1736 16.3579 77.8298 16.0866 78.3137 15.6037C78.7975 15.1208 79.0694 14.4658 79.0694 13.7829V9.62127C79.0694 8.93834 78.7975 8.28337 78.3137 7.80047C77.8299 7.31756 77.1736 7.04626 76.4894 7.04626H71.6762Z" fill="#388FF3"/>
<path opacity="0.15" d="M71.6762 7.04626C70.6849 7.03753 69.7164 6.74803 68.8835 6.21143C68.0506 5.67484 67.3875 4.91321 66.9713 4.01517C66.3973 2.81312 65.4939 1.79799 64.3656 1.08737C63.2373 0.376754 61.9304 -0.000262065 60.5962 1.36671e-07H59.4003V0.102723C58.2782 0.29575 57.2194 0.756395 56.314 1.44548C55.4086 2.13457 54.6834 3.03171 54.1999 4.06061C53.7846 4.95108 53.1236 5.70492 52.2942 6.23373C51.4649 6.76254 50.5017 7.0444 49.5176 7.04626H44.703C44.3642 7.04626 44.0287 7.11286 43.7157 7.24227C43.4027 7.37167 43.1183 7.56135 42.8787 7.80046C42.6391 8.03957 42.4491 8.32343 42.3194 8.63585C42.1898 8.94826 42.123 9.2831 42.123 9.62125V13.7829C42.123 14.4658 42.3949 15.1208 42.8787 15.6037C43.3625 16.0866 44.0188 16.3579 44.703 16.3579H76.4894C77.1736 16.3579 77.8298 16.0866 78.3137 15.6037C78.7975 15.1208 79.0694 14.4658 79.0694 13.7829V9.62127C79.0694 8.93834 78.7975 8.28337 78.3137 7.80047C77.8299 7.31756 77.1736 7.04626 76.4894 7.04626H71.6762Z" fill="#16191D"/>
<path fill-rule="evenodd" clip-rule="evenodd" d="M94.0935 11.9512C96.0713 11.9512 97.6746 13.5514 97.6746 15.5253V109.426C97.6746 111.4 96.0713 113 94.0935 113H27.8125C25.8347 113 24.2314 111.4 24.2314 109.426V15.5253C24.2314 13.5514 25.8347 11.9512 27.8125 11.9512H94.0935Z" fill="#F0F3F7"/>
<path fill-rule="evenodd" clip-rule="evenodd" d="M92.1873 11.9512C94.165 11.9512 95.7683 13.5514 95.7683 15.5253V109.426C95.7683 111.4 94.165 113 92.1873 113H25.9062C23.9285 113 22.3252 111.4 22.3252 109.426V15.5253C22.3252 13.5514 23.9285 11.9512 25.9062 11.9512H92.1873Z" fill="#D5D8DB"/>
<path fill-rule="evenodd" clip-rule="evenodd" d="M89.0448 15.9629C90.3329 15.9629 91.377 17.005 91.377 18.2906V106.613C91.377 107.899 90.3329 108.941 89.0448 108.941H29.047C27.759 108.941 26.7148 107.899 26.7148 106.613V18.2906C26.7148 17.005 27.759 15.9629 29.047 15.9629H89.0448Z" fill="white"/>
<path fill-rule="evenodd" clip-rule="evenodd" d="M38 80C34.6863 80 32 77.3137 32 74C32 70.6863 34.6863 68 38 68C41.3137 68 44 70.6863 44 74C44 77.3137 41.3137 80 38 80Z" fill="#E93C47"/>
<path fill-rule="evenodd" clip-rule="evenodd" d="M38 44C34.6863 44 32 41.3137 32 38C32 34.6863 34.6863 32 38 32C41.3137 32 44 34.6863 44 38C44 41.3137 41.3137 44 38 44Z" fill="#E93C47"/>
<path fill-rule="evenodd" clip-rule="evenodd" d="M38 62C34.6863 62 32 59.3137 32 56C32 52.6863 34.6863 50 38 50C41.3137 50 44 52.6863 44 56C44 59.3137 41.3137 62 38 62Z" fill="#E93C47"/>
<path d="M40.3337 71.6667L35.667 76.3334M40.3337 76.3334L35.667 71.6667" stroke="white" stroke-width="1.2" stroke-linecap="round"/>
<path d="M40.3337 35.6667L35.667 40.3334M40.3337 40.3334L35.667 35.6667" stroke="white" stroke-width="1.2" stroke-linecap="round"/>
<path d="M40.3337 53.6667L35.667 58.3334M40.3337 58.3334L35.667 53.6667" stroke="white" stroke-width="1.2" stroke-linecap="round"/>
<path fill-rule="evenodd" clip-rule="evenodd" d="M84.282 36.3594C85.3385 36.3594 86.195 37.2142 86.195 38.2688V38.2688C86.195 39.3233 85.3385 40.1782 84.282 40.1782H51.0566C50.0001 40.1782 49.1436 39.3233 49.1436 38.2688V38.2688C49.1436 37.2142 50.0001 36.3594 51.0566 36.3594H84.282Z" fill="#D5D8DB"/>
<path fill-rule="evenodd" clip-rule="evenodd" d="M84.282 54.1973C85.3385 54.1973 86.195 55.0521 86.195 56.1067V56.1067C86.195 57.1612 85.3385 58.0161 84.282 58.0161H51.0566C50.0001 58.0161 49.1436 57.1612 49.1436 56.1067V56.1067C49.1436 55.0521 50.0001 54.1973 51.0566 54.1973H84.282Z" fill="#D5D8DB"/>
<path fill-rule="evenodd" clip-rule="evenodd" d="M84.282 72.0332C85.3385 72.0332 86.195 72.8881 86.195 73.9426C86.195 74.9971 85.3385 75.852 84.282 75.852H51.0566C50.0001 75.852 49.1436 74.9971 49.1436 73.9426C49.1436 72.8881 50.0001 72.0332 51.0566 72.0332H84.282Z" fill="#D5D8DB"/>
<path fill-rule="evenodd" clip-rule="evenodd" d="M38.5654 98.0119C35.1158 98.0119 32.3193 95.2206 32.3193 91.7774C32.3193 88.3342 35.1158 85.543 38.5654 85.543C42.015 85.543 44.8115 88.3342 44.8115 91.7774C44.8115 95.2206 42.015 98.0119 38.5654 98.0119Z" fill="#D5D8DB"/>
<path fill-rule="evenodd" clip-rule="evenodd" d="M84.282 89.8691C85.3385 89.8691 86.195 90.724 86.195 91.7785V91.7785C86.195 92.8331 85.3385 93.6879 84.282 93.6879H51.0566C50.0001 93.6879 49.1436 92.8331 49.1436 91.7785V91.7785C49.1436 90.724 50.0001 89.8691 51.0566 89.8691H84.282Z" fill="#D5D8DB"/>
<path d="M70.4819 7.04627C69.4905 7.03754 68.5221 6.74804 67.6892 6.21144C66.8563 5.67484 66.1932 4.91322 65.777 4.01518C65.2028 2.81329 64.2993 1.7983 63.171 1.08771C62.0428 0.377125 60.736 0 59.4019 0C58.0678 0 56.761 0.377125 55.6327 1.08771C54.5045 1.7983 53.601 2.81329 53.0268 4.01518C52.6106 4.91322 51.9475 5.67484 51.1146 6.21144C50.2817 6.74804 49.3132 7.03754 48.3219 7.04627H43.5087C43.1699 7.04627 42.8344 7.11287 42.5214 7.24228C42.2084 7.37168 41.9239 7.56135 41.6844 7.80046C41.4448 8.03957 41.2548 8.32344 41.1251 8.63585C40.9954 8.94827 40.9287 9.28311 40.9287 9.62126V19.4344C40.9287 20.1173 41.2005 20.7723 41.6844 21.2552C42.1682 21.7381 42.8245 22.0094 43.5087 22.0094H75.295C75.6338 22.0094 75.9693 21.9428 76.2823 21.8134C76.5954 21.684 76.8798 21.4943 77.1194 21.2552C77.3589 21.0161 77.549 20.7322 77.6786 20.4198C77.8083 20.1073 77.875 19.7725 77.875 19.4343V9.62128C77.875 8.93835 77.6032 8.28338 77.1194 7.80048C76.6355 7.31757 75.9793 7.04627 75.295 7.04627H70.4819Z" fill="#388FF3"/>
<path opacity="0.2" fill-rule="evenodd" clip-rule="evenodd" d="M74.0871 18.2051C74.6486 18.2051 75.1038 18.6594 75.1038 19.2199V19.2199C75.1038 19.7804 74.6486 20.2347 74.0871 20.2347H45.5558C44.9943 20.2347 44.5391 19.7804 44.5391 19.2199V19.2199C44.5391 18.6594 44.9943 18.2051 45.5558 18.2051H74.0871Z" fill="white"/>
<path fill-rule="evenodd" clip-rule="evenodd" d="M90 112C83.3726 112 78 106.627 78 100C78 93.3726 83.3726 88 90 88C96.6274 88 102 93.3726 102 100C102 106.627 96.6274 112 90 112Z" fill="#E93C47"/>
<path d="M94.6663 95.3333L85.333 104.667M94.6663 104.667L85.333 95.3333" stroke="white" stroke-width="2" stroke-linecap="round"/>
<defs>
<linearGradient id="paint0_linear_1_5217" x1="0" y1="6.52148" x2="0" y2="112.983" gradientUnits="userSpaceOnUse">
<stop stop-color="#FBFDFE"/>
<stop offset="1" stop-color="#F0F5FA"/>
</linearGradient>
</defs>
</svg>
